# xmcd CD database file
#
# Track frame offsets:
#	150
#	4917
#	20469
#	45014
#	67327
#	99955
#	127882
#	154926
#	190968
#	216112
#	249420
#
# Disc length: 3737 seconds
#
# Revision: 0
# Processed by: cddbd v1.5.2PL0 Copyright (c) Steve Scherf et al.
# Submitted via: CDex 1.79
#
DISCID=8a0e970b
DTITLE=Buzztown -  Live Au Mans
DYEAR=2015
DGENRE=Blues
TTITLE0=Intro
TTITLE1=Back To Me
TTITLE2=The Worst Is Yet To Come
TTITLE3=Mr Wrong
TTITLE4=Sharing Would be The Way
TTITLE5=Tell Me
TTITLE6=Trader
TTITLE7=Sweet Cad
TTITLE8=Beauty Queen
TTITLE9=Shake Your Hips
TTITLE10=Sons
EXTD=YEAR: 2015
EXTT0=
EXTT1=
EXTT2=
EXTT3=
EXTT4=
EXTT5=
EXTT6=
EXTT7=
EXTT8=
EXTT9=
EXTT10=
PLAYORDER=
